# xmcd
#
# Track frame offsets: 
#        150
#        22032
#        44243
#        64426
#        87806
#        105026
#        117899
#        146801
#        175856
#        199736
#        228321
#        254445
#        285710
#        305744
#        330714
#
# Disc length: 4677 seconds
#
# Revision: 0
# Processed by: cddbd v1.5.2PL0 Copyright (c) Steve Scherf et al.
# Submitted via: ExactAudioCopy v0.99pb3
#
DISCID=de12430f
DTITLE=Various Artist - WOW Gospel 2008 - Disk 2
DYEAR=2008
DGENRE=Gospel
TTITLE0=The New Life Community Choir Featuring John P. Kee - Sanctuary
TTITLE1=Marvin Sapp - Magnify
TTITLE2=Fred Hammond - This Is The Day
TTITLE3=Byron Cage - Holy Holy Holy
TTITLE4=Israel And New Breed Featuring T-Bone - With Long Life
TTITLE5=Kierra "Kiki" Sheard - You
TTITLE6=James Hairston And Youthful Praise - Incredible God, Incredibl
TTITLE6=e Praise
TTITLE7=Tye Tribbett And G.A. - Sinking
TTITLE8=Richard Smallwood With Vision - I'll Trust You
TTITLE9=Tramaine Hawkins Featuring Patrick Lundy And The Ministers Of 
TTITLE9=Musicz - I Never Lost My Praise
TTITLE10=Juanita Bynum - I Don't Mind Waiting
TTITLE11=Donnie McClurkin - Only You Are Holy
TTITLE12=Nicole C. Mullen - One Touch (Press)
TTITLE13=The West Angeles Mass Choir - Lord Prepare Me To Be A Sanctua
TTITLE13=ry
TTITLE14=Bishop T.D. Jakes And The Potter's House Mass Choir - Grace
EXTD=
EXTT0=
EXTT1=
EXTT2=
EXTT3=
EXTT4=
EXTT5=
EXTT6=
EXTT7=
EXTT8=
EXTT9=
EXTT10=
EXTT11=
EXTT12=
EXTT13=
EXTT14=
PLAYORDER=
